{"accessors":[{"bufferView":2,"componentType":5126,"count":432,"max":[4.922184467315674,0.7709200978279114,3.954453468322754],"min":[-7.509952068328857,-9.248396873474121,-7.682744979858398],"type":"VEC3"},{"bufferView":2,"byteOffset":5184,"componentType":5126,"count":432,"max":[0.9899640083312988,1,0.9517306089401245],"min":[-0.9729153513908386,-0.9969097375869751,-0.9043483138084412],"type":"VEC3"},{"bufferView":1,"componentType":5126,"count":432,"max":[1,1],"min":[0,0],"type":"VEC2"},{"bufferView":0,"componentType":5125,"count":588,"type":"SCALAR"},{"bufferView":2,"byteOffset":10368,"componentType":5126,"count":38,"max":[1.5070724487304688,0.35112643241882324,1.0956705808639526],"min":[0.2899775505065918,-0.8659683465957642,0.04163551330566406],"type":"VEC3"},{"bufferView":2,"byteOffset":10824,"componentType":5126,"count":38,"max":[0.8660255670547485,1,1],"min":[-0.8660255074501038,-1,-1],"type":"VEC3"},{"bufferView":1,"byteOffset":3456,"componentType":5126,"count":38,"max":[0.65625,0.9790664911270142],"min":[0.34375,0.02093350887298584],"type":"VEC2"},{"bufferView":0,"byteOffset":2352,"componentType":5125,"count":72,"type":"SCALAR"},{"bufferView":2,"byteOffset":11280,"componentType":5126,"count":38,"max":[0.8152357339859009,0.35112643241882324,-0.20796823501586914],"min":[-0.40185898542404175,-0.8659683465957642,-1.2620033025741577],"type":"VEC3"},{"bufferView":2,"byteOffset":11736,"componentType":5126,"count":38,"max":[0.8660255074501038,1,1],"min":[-0.8660255074501038,-1,-1],"type":"VEC3"},{"bufferView":1,"byteOffset":3760,"componentType":5126,"count":38,"max":[0.65625,0.9790664911270142],"min":[0.34375,0.02093350887298584],"type":"VEC2"},{"bufferView":0,"byteOffset":2640,"componentType":5125,"count":72,"type":"SCALAR"},{"bufferView":2,"byteOffset":12192,"componentType":5126,"count":38,"max":[-0.5787835717201233,0.1399509608745575,-0.9346173405647278],"min":[-1.7958784103393555,-1.0771437883377075,-1.9886524677276611],"type":"VEC3"},{"bufferView":2,"byteOffset":12648,"componentType":5126,"count":38,"max":[0.8660255670547485,1,1],"min":[-0.8660255074501038,-1,-1],"type":"VEC3"},{"bufferView":1,"byteOffset":4064,"componentType":5126,"count":38,"max":[0.65625,0.9790664911270142],"min":[0.34375,0.02093350887298584],"type":"VEC2"},{"bufferView":0,"byteOffset":2928,"componentType":5125,"count":72,"type":"SCALAR"},{"bufferView":2,"byteOffset":13104,"componentType":5126,"count":34,"max":[0.977028489112854,-2.0963056087493896,-1.8015813827514648],"min":[-0.6658320426940918,-4.412503719329834,-4.291080951690674],"type":"VEC3"},{"bufferView":2,"byteOffset":13512,"componentType":5126,"count":34,"max":[0.9902600049972534,0.9873852729797363,0.9848848581314087],"min":[-0.1414930820465088,-0.982282280921936,-0.9782223105430603],"type":"VEC3"},{"bufferView":1,"byteOffset":4368,"componentType":5126,"count":34,"max":[0.65625,0.9790664911270142],"min":[0.34375,0.3125],"type":"VEC2"},{"bufferView":0,"byteOffset":3216,"componentType":5125,"count":54,"type":"SCALAR"},{"bufferView":2,"byteOffset":13920,"componentType":5126,"count":50,"max":[-0.36450672149658203,0.9402013421058655,1.2320154905319214],"min":[-1.8964765071868896,-0.7733767032623291,-0.09470933675765991],"type":"VEC3"},{"bufferView":2,"byteOffset":14520,"componentType":5126,"count":50,"max":[0.8459534645080566,1,0.9777284860610962],"min":[-0.8469499945640564,-0.999992847442627,-0.9764072299003601],"type":"VEC3"},{"bufferView":1,"byteOffset":4640,"componentType":5126,"count":50,"max":[0.65625,0.9790664911270142],"min":[0.34375,0.02093350887298584],"type":"VEC2"},{"bufferView":0,"byteOffset":3432,"componentType":5125,"count":108,"type":"SCALAR"},{"bufferView":2,"byteOffset":15120,"componentType":5126,"count":49,"max":[1.1651860475540161,-0.5426559448242188,4.007160186767578],"min":[-1.3229427337646484,-3.4156997203826904,0.9790337085723877],"type":"VEC3"},{"bufferView":2,"byteOffset":15708,"componentType":5126,"count":49,"max":[1,0.8660255074501038,0.917464554309845],"min":[-1,-0.866025447845459,-1],"type":"VEC3"},{"bufferView":1,"byteOffset":5040,"componentType":5126,"count":49,"max":[0.65625,0.9790664911270142],"min":[0.34375,0.02093350887298584],"type":"VEC2"},{"bufferView":0,"byteOffset":3864,"componentType":5125,"count":72,"type":"SCALAR"}],"asset":{"extras":{"author":"Jezza3D (https://sketchfab.com/Jezza3D)","license":"CC-BY-4.0 (http://creativecommons.org/licenses/by/4.0/)","source":"https://sketchfab.com/3d-models/oculus-rift-right-touch-controller-5480254223ae413f8b25dec3a4341195","title":"Oculus Rift Right Touch Controller"},"generator":"Sketchfab-12.66.0","version":"2.0"},"bufferViews":[{"buffer":0,"byteLength":4152,"name":"floatBufferViews","target":34963},{"buffer":0,"byteLength":5432,"byteOffset":4152,"byteStride":8,"name":"floatBufferViews","target":34962},{"buffer":0,"byteLength":16296,"byteOffset":9584,"byteStride":12,"name":"floatBufferViews","target":34962}],"buffers":[{"byteLength":25880,"uri":"scene.bin"}],"materials":[{"doubleSided":true,"name":"blinn_Controller_Main","pbrMetallicRoughness":{"baseColorFactor":[0.0974026,0.0974026,0.0974026,1],"metallicFactor":0,"roughnessFactor":0.2970655488}},{"doubleSided":true,"name":"lambert2","pbrMetallicRoughness":{"baseColorFactor":[0,0,0,1],"metallicFactor":0,"roughnessFactor":0.30316310980000005}}],"meshes":[{"name":"ControllerMain_blinn_Controller_Main_0","primitives":[{"attributes":{"NORMAL":1,"POSITION":0,"TEXCOORD_0":2},"indices":3,"material":0,"mode":4}]},{"name":"Top_Button_lambert2_0","primitives":[{"attributes":{"NORMAL":5,"POSITION":4,"TEXCOORD_0":6},"indices":7,"material":1,"mode":4}]},{"name":"Bottom_Button_lambert2_0","primitives":[{"attributes":{"NORMAL":9,"POSITION":8,"TEXCOORD_0":10},"indices":11,"material":1,"mode":4}]},{"name":"Menu_Button_lambert2_0","primitives":[{"attributes":{"NORMAL":13,"POSITION":12,"TEXCOORD_0":14},"indices":15,"material":1,"mode":4}]},{"name":"GripTrigger_lambert2_0","primitives":[{"attributes":{"NORMAL":17,"POSITION":16,"TEXCOORD_0":18},"indices":19,"material":1,"mode":4}]},{"name":"Thumbstick_lambert2_0","primitives":[{"attributes":{"NORMAL":21,"POSITION":20,"TEXCOORD_0":22},"indices":23,"material":1,"mode":4}]},{"name":"Trigger_lambert2_0","primitives":[{"attributes":{"NORMAL":25,"POSITION":24,"TEXCOORD_0":26},"indices":27,"material":1,"mode":4}]}],"nodes":[{"children":[1],"matrix":[1,0,0,0,0,2.220446049250313e-16,-1,0,0,1,2.220446049250313e-16,0,0,0,0,1],"name":"Sketchfab_model"},{"children":[2],"matrix":[1,0,0,0,0,0,1,0,0,-1,0,0,0,0,0,1],"name":"2911d44a78c2463dbfa843582ee49625.fbx"},{"children":[3],"name":"RootNode"},{"children":[4,6,8,10,12,14,16],"name":"RightRiftController"},{"children":[5],"name":"ControllerMain"},{"mesh":0,"name":"ControllerMain_blinn_Controller_Main_0"},{"children":[7],"name":"Top_Button"},{"mesh":1,"name":"Top_Button_lambert2_0"},{"children":[9],"name":"Bottom_Button"},{"mesh":2,"name":"Bottom_Button_lambert2_0"},{"children":[11],"name":"Menu_Button"},{"mesh":3,"name":"Menu_Button_lambert2_0"},{"children":[13],"name":"GripTrigger"},{"mesh":4,"name":"GripTrigger_lambert2_0"},{"children":[15],"name":"Thumbstick"},{"mesh":5,"name":"Thumbstick_lambert2_0"},{"children":[17],"name":"Trigger"},{"mesh":6,"name":"Trigger_lambert2_0"}],"scene":0,"scenes":[{"name":"Sketchfab_Scene","nodes":[0]}]}